<?xml version="1.0" encoding="utf-8"?>
<!-- Generator: Adobe Illustrator 24.3.0, SVG Export Plug-In . SVG Version: 6.00 Build 0)  -->
<svg version="1.1" id="Layer_1" xmlns="http://www.w3.org/2000/svg" xmlns:xlink="http://www.w3.org/1999/xlink" x="0px" y="0px"
	 viewBox="0 0 30 30" style="enable-background:new 0 0 30 30;" xml:space="preserve">
<style type="text/css">
	.st0{fill:#FFFFFF;}
</style>
<g>
	<path class="st0" d="M4.2,7.3L4.2,7.3c-1.1,0-2-0.9-2-2v0c0-1.1,0.9-2,2-2h0c1.1,0,2,0.9,2,2v0C6.2,6.4,5.3,7.3,4.2,7.3z"/>
	<path class="st0" d="M15,7.3L15,7.3c-1.1,0-2-0.9-2-2v0c0-1.1,0.9-2,2-2h0c1.1,0,2,0.9,2,2v0C17,6.4,16.1,7.3,15,7.3z"/>
	<path class="st0" d="M25.8,7.3L25.8,7.3c-1.1,0-2-0.9-2-2v0c0-1.1,0.9-2,2-2h0c1.1,0,2,0.9,2,2v0C27.8,6.4,26.9,7.3,25.8,7.3z"/>
	<path class="st0" d="M4.2,17L4.2,17c-1.1,0-2-0.9-2-2v0c0-1.1,0.9-2,2-2h0c1.1,0,2,0.9,2,2v0C6.2,16.1,5.3,17,4.2,17z"/>
	<path class="st0" d="M15,17L15,17c-1.1,0-2-0.9-2-2v0c0-1.1,0.9-2,2-2h0c1.1,0,2,0.9,2,2v0C17,16.1,16.1,17,15,17z"/>
	<path class="st0" d="M25.8,17L25.8,17c-1.1,0-2-0.9-2-2v0c0-1.1,0.9-2,2-2h0c1.1,0,2,0.9,2,2v0C27.8,16.1,26.9,17,25.8,17z"/>
	<path class="st0" d="M4.2,26.7L4.2,26.7c-1.1,0-2-0.9-2-2v0c0-1.1,0.9-2,2-2h0c1.1,0,2,0.9,2,2v0C6.2,25.8,5.3,26.7,4.2,26.7z"/>
	<path class="st0" d="M15,26.7L15,26.7c-1.1,0-2-0.9-2-2v0c0-1.1,0.9-2,2-2h0c1.1,0,2,0.9,2,2v0C17,25.8,16.1,26.7,15,26.7z"/>
	<path class="st0" d="M25.8,26.7L25.8,26.7c-1.1,0-2-0.9-2-2v0c0-1.1,0.9-2,2-2h0c1.1,0,2,0.9,2,2v0C27.8,25.8,26.9,26.7,25.8,26.7z
		"/>
</g>
</svg>
